<svg id="visual" viewBox="0 0 1920 400" width="1920" height="400" xmlns="http://www.w3.org/2000/svg" xmlns:xlink="http://www.w3.org/1999/xlink" version="1.1"><path d="M0 296L29.2 257C58.3 218 116.7 140 174.8 133.3C233 126.7 291 191.3 349.2 210C407.3 228.7 465.7 201.3 523.8 217.8C582 234.3 640 294.7 698.2 296.3C756.3 298 814.7 241 872.8 220.2C931 199.3 989 214.7 1047.2 201.7C1105.3 188.7 1163.7 147.3 1221.8 166.2C1280 185 1338 264 1396.2 289.3C1454.3 314.7 1512.7 286.3 1570.8 251.3C1629 216.3 1687 174.7 1745.2 183.2C1803.3 191.7 1861.7 250.3 1890.8 279.7L1920 309L1920 0L1890.8 0C1861.7 0 1803.3 0 1745.2 0C1687 0 1629 0 1570.8 0C1512.7 0 1454.3 0 1396.2 0C1338 0 1280 0 1221.8 0C1163.7 0 1105.3 0 1047.2 0C989 0 931 0 872.8 0C814.7 0 756.3 0 698.2 0C640 0 582 0 523.8 0C465.7 0 407.3 0 349.2 0C291 0 233 0 174.8 0C116.7 0 58.3 0 29.2 0L0 0Z" fill="gray"></path></svg>