<svg id="visual" viewBox="0 0 960 540" width="960" height="540" xmlns="http://www.w3.org/2000/svg" xmlns:xlink="http://www.w3.org/1999/xlink" version="1.1"><path d="M0 229L5.2 239.8C10.3 250.7 20.7 272.3 31 289.2C41.3 306 51.7 318 62 303.5C72.3 289 82.7 248 93 247C103.3 246 113.7 285 124 277.3C134.3 269.7 144.7 215.3 155 207.8C165.3 200.3 175.7 239.7 186 239.5C196.3 239.3 206.7 199.7 217 204.8C227.3 210 237.7 260 248 297.7C258.3 335.3 268.7 360.7 279 357.5C289.3 354.3 299.7 322.7 310 311.3C320.3 300 330.7 309 341 291.3C351.3 273.7 361.7 229.3 372 208.2C382.3 187 392.7 189 403 200.3C413.3 211.7 423.7 232.3 434 265.7C444.3 299 454.7 345 464.8 355C475 365 485 339 495.2 314.5C505.3 290 515.7 267 526 266.2C536.3 265.3 546.7 286.7 557 309.8C567.3 333 577.7 358 588 363.8C598.3 369.7 608.7 356.3 619 345.5C629.3 334.7 639.7 326.3 650 298.5C660.3 270.7 670.7 223.3 681 212.2C691.3 201 701.7 226 712 251.7C722.3 277.3 732.7 303.7 743 292.5C753.3 281.3 763.7 232.7 774 211.2C784.3 189.7 794.7 195.3 805 218.5C815.3 241.7 825.7 282.3 836 312.2C846.3 342 856.7 361 867 373.2C877.3 385.3 887.7 390.7 898 358.5C908.3 326.3 918.7 256.7 929 238.8C939.3 221 949.7 255 954.8 272L960 289L960 0L954.8 0C949.7 0 939.3 0 929 0C918.7 0 908.3 0 898 0C887.7 0 877.3 0 867 0C856.7 0 846.3 0 836 0C825.7 0 815.3 0 805 0C794.7 0 784.3 0 774 0C763.7 0 753.3 0 743 0C732.7 0 722.3 0 712 0C701.7 0 691.3 0 681 0C670.7 0 660.3 0 650 0C639.7 0 629.3 0 619 0C608.7 0 598.3 0 588 0C577.7 0 567.3 0 557 0C546.7 0 536.3 0 526 0C515.7 0 505.3 0 495.2 0C485 0 475 0 464.8 0C454.7 0 444.3 0 434 0C423.7 0 413.3 0 403 0C392.7 0 382.3 0 372 0C361.7 0 351.3 0 341 0C330.7 0 320.3 0 310 0C299.7 0 289.3 0 279 0C268.7 0 258.3 0 248 0C237.7 0 227.3 0 217 0C206.7 0 196.3 0 186 0C175.7 0 165.3 0 155 0C144.7 0 134.3 0 124 0C113.7 0 103.3 0 93 0C82.7 0 72.3 0 62 0C51.7 0 41.3 0 31 0C20.7 0 10.3 0 5.2 0L0 0Z" fill="deeppink" stroke-linecap="round" stroke-linejoin="miter"></path></svg>